<svg width="32" height="32" viewBox="0 0 32 32" fill="none" xmlns="http://www.w3.org/2000/svg">
<g clip-path="url(#clip0_23910_389683)">
<path d="M13.528 0H13.6116C13.8344 0.162802 14.3394 0.436625 14.5919 0.582406L16.4568 1.65803L23.6571 5.81534L25.899 7.10738C26.2442 7.30638 26.8498 7.63353 27.1552 7.85522L27.1598 14.4747C27.1597 15.7403 27.1837 17.1037 27.1533 18.3595C27.6061 18.5467 28.0073 18.707 28.4365 18.9469C29.8179 19.7225 30.8951 20.9441 31.4916 22.4118C31.6612 22.8222 31.7394 23.0905 31.8263 23.5228C31.8566 23.6731 31.9509 24.1537 32 24.27V25.7955L31.9909 25.821C31.8597 26.2001 31.8109 26.7354 31.6684 27.1586C31.0806 28.9491 29.8021 30.4306 28.117 31.2744C27.7437 31.46 27.4639 31.5891 27.0685 31.7062C26.8247 31.7787 26.0835 31.9037 25.8949 32H24.2267C23.919 31.8809 23.2612 31.795 22.8713 31.6653C21.5306 31.2233 20.354 30.3879 19.4948 29.2679C19.2506 28.9508 19.0797 28.6571 18.8592 28.3308C18.3775 28.5837 17.8858 28.8931 17.4083 29.1604C16.1323 29.8746 14.8541 30.6714 13.5747 31.3709L4.24375 25.9818C2.8459 25.1747 1.37775 24.3561 0 23.5265V7.82216C1.06866 7.24591 2.20348 6.55937 3.26194 5.94825L9.32203 2.44933L12.1661 0.807863C12.4313 0.655425 13.3272 0.164966 13.528 0ZM12.6279 16.2377C12.1829 15.9365 11.5169 15.5775 11.0353 15.2994L8.18959 13.6567L4.02072 11.2522C3.33237 10.8548 2.59375 10.402 1.90093 10.029C1.85414 10.3534 1.87422 11.1768 1.87461 11.5411L1.87753 14.339L1.87709 19.6801C1.87701 20.5693 1.85063 21.578 1.88232 22.4505L9.44553 26.8148L11.6148 28.0687C11.8061 28.179 12.4694 28.5745 12.6345 28.6362C12.6728 27.9106 12.6454 26.9525 12.6451 26.2128L12.6438 21.7297L12.6447 18.1647C12.6448 17.6304 12.6705 16.7393 12.6279 16.2377ZM13.6073 14.5689C14.4702 14.1142 15.4607 13.5098 16.3198 13.0132L21.3065 10.1312L23.3975 8.92572C23.5306 8.84941 24.1938 8.47984 24.2655 8.41438C24.2103 8.24566 23.0378 7.63506 22.8262 7.51069L18.5646 5.04581L15.4429 3.24419C15.0325 3.00727 13.9656 2.32157 13.5682 2.18737C12.6836 2.66167 11.7489 3.22494 10.8757 3.72903L6.08647 6.49441L3.97416 7.71413C3.76541 7.83484 3.05876 8.22675 2.91545 8.36494L2.90881 8.41522C3.15947 8.60397 3.83172 8.97172 4.12659 9.14178L6.41753 10.4624C7.21894 10.9246 13.3551 14.5333 13.6073 14.5689ZM14.5312 16.2357C14.4976 16.8418 14.5173 17.6183 14.5173 18.2378L14.5183 21.7736L14.5191 26.4981L14.5258 27.9899C14.5259 28.1528 14.4636 28.4765 14.5716 28.5928C14.6617 28.5889 14.6526 28.5779 14.7341 28.5275L17.0398 27.2002C17.2614 27.0725 17.9763 26.6802 18.1381 26.5385C18.1653 26.3482 18.0468 25.2252 18.0565 24.8387C18.1123 22.7044 19.1405 20.7127 20.8481 19.4311C21.9948 18.5674 23.8559 17.9091 25.2907 18.0594C25.2476 16.0495 25.3186 13.9751 25.2889 11.959C25.2855 11.7307 25.3075 10.2201 25.2715 10.0837L25.2128 10.0606C23.2101 11.1742 21.1803 12.3842 19.1893 13.5307C17.6811 14.3992 15.9985 15.3268 14.5312 16.2357ZM25.5472 30.0923C28.3473 29.8022 30.381 27.2954 30.0875 24.4956C29.794 21.6958 27.2846 19.6652 24.4852 19.9622C21.6906 20.2586 19.6643 22.7627 19.9573 25.5576C20.2503 28.3526 22.7519 30.382 25.5472 30.0923Z" fill="white"/>
<path d="M24.0757 25.9952L24.0745 24.0849C24.0832 23.782 24.0552 22.2033 24.1245 22.0432L25.0164 22.041C25.0311 22.6786 25.0337 24.3759 25.0161 25.0104C25.6878 25.006 27.3275 25.0207 28.0017 25.0242C28.0076 25.6557 28.0073 25.3461 28.0008 25.9777C27.4088 25.9721 26.5182 26.0246 25.9678 25.9759L24.0757 25.9952Z" fill="white"/>
</g>
<defs>
<clipPath id="clip0_23910_389683">
<rect width="32" height="32" fill="white"/>
</clipPath>
</defs>
</svg>
