<svg width="40" height="40" viewBox="0 0 40 40" fill="none" xmlns="http://www.w3.org/2000/svg">
<g clip-path="url(#clip0_23910_389695)">
<path d="M35.0625 0H4.9375C2.215 0 0 2.215 0 4.9375V11.2135C0 11.8607 0.524687 12.3854 1.17188 12.3854H7.53125V36.3177C7.53125 36.6285 7.65469 36.9265 7.87453 37.1462L10.3849 39.6567C10.6047 39.8765 10.9027 40 11.2135 40C11.5243 40 11.8224 39.8766 12.0421 39.6567L13.7239 37.975L15.4056 39.6567C15.6254 39.8765 15.9234 40 16.2342 40C16.545 40 16.8431 39.8766 17.0628 39.6567L18.7446 37.975L20.4263 39.6567C20.6461 39.8765 20.9441 40 21.2549 40C21.5657 40 21.8638 39.8766 22.0835 39.6567L23.7656 37.975L25.4473 39.6567C25.6671 39.8765 25.9652 40 26.2759 40C26.5867 40 26.8848 39.8766 27.1045 39.6567L28.7863 37.975L30.468 39.6567C30.6878 39.8765 30.9859 40 31.2966 40C31.6074 40 31.9055 39.8766 32.1252 39.6567L33.807 37.975L35.4888 39.6567C35.7085 39.8765 36.0066 40 36.3173 40C36.6281 40 36.9263 39.8766 37.1459 39.6567L39.6564 37.1462C39.8762 36.9265 39.9997 36.6284 39.9997 36.3177V4.9375C40 2.215 37.785 0 35.0625 0ZM2.34375 10.0416V4.9375C2.34375 3.50734 3.50734 2.34375 4.9375 2.34375C6.36766 2.34375 7.53125 3.50734 7.53125 4.9375V10.0416H2.34375ZM37.6562 35.8323L36.3177 37.1709L34.6359 35.4891C34.4162 35.2693 34.1181 35.1458 33.8073 35.1458C33.4966 35.1458 33.1984 35.2692 32.9787 35.4891L31.2969 37.1709L29.6152 35.4891C29.3954 35.2693 29.0973 35.1458 28.7866 35.1458C28.4758 35.1458 28.1777 35.2692 27.958 35.4891L26.2762 37.1709L24.5945 35.4891C24.3747 35.2693 24.0766 35.1458 23.7659 35.1458C23.4551 35.1458 23.157 35.2692 22.9373 35.4891L21.2555 37.1709L19.5734 35.4891C19.3537 35.2693 19.0556 35.1458 18.7448 35.1458C18.4341 35.1458 18.1359 35.2692 17.9163 35.4891L16.2344 37.1709L14.5527 35.4891C14.3329 35.2693 14.0348 35.1458 13.7241 35.1458C13.4133 35.1458 13.1152 35.2692 12.8955 35.4891L11.2137 37.1709L9.875 35.8323V11.2135V4.9375C9.875 3.98656 9.60406 3.09805 9.13641 2.34375H35.0625C36.4927 2.34375 37.6562 3.50734 37.6562 4.9375V35.8323Z" fill="#0B8041"/>
<path d="M25.0208 6.27588H14.9791C14.3319 6.27588 13.8073 6.80057 13.8073 7.44775C13.8073 8.09494 14.3319 8.61963 14.9791 8.61963H25.0208C25.668 8.61963 26.1926 8.09494 26.1926 7.44775C26.1926 6.80057 25.668 6.27588 25.0208 6.27588Z" fill="#0B8041"/>
<path d="M14.9791 13.6406H21.2551C21.9023 13.6406 22.427 13.1159 22.427 12.4688C22.427 11.8216 21.9023 11.2969 21.2551 11.2969H14.9791C14.3319 11.2969 13.8073 11.8216 13.8073 12.4688C13.8073 13.1159 14.3319 13.6406 14.9791 13.6406Z" fill="#0B8041"/>
<path d="M25.0208 16.3179H14.9791C14.3319 16.3179 13.8073 16.8426 13.8073 17.4897C13.8073 18.1369 14.3319 18.6616 14.9791 18.6616H25.0208C25.668 18.6616 26.1926 18.1369 26.1926 17.4897C26.1926 16.8426 25.668 16.3179 25.0208 16.3179Z" fill="#0B8041"/>
<path d="M25.0208 26.3594H14.9791C14.3319 26.3594 13.8073 26.8841 13.8073 27.5312C13.8073 28.1784 14.3319 28.7031 14.9791 28.7031H25.0208C25.668 28.7031 26.1926 28.1784 26.1926 27.5312C26.1926 26.8841 25.668 26.3594 25.0208 26.3594Z" fill="#0B8041"/>
<path d="M14.9791 23.6821H21.2551C21.9023 23.6821 22.427 23.1574 22.427 22.5103C22.427 21.8631 21.9023 21.3384 21.2551 21.3384H14.9791C14.3319 21.3384 13.8073 21.8631 13.8073 22.5103C13.8073 23.1574 14.3319 23.6821 14.9791 23.6821Z" fill="#0B8041"/>
<path d="M32.8157 6.27588H30.0416C29.3944 6.27588 28.8698 6.80057 28.8698 7.44775C28.8698 8.09494 29.3944 8.61963 30.0416 8.61963H32.8157C33.4629 8.61963 33.9876 8.09494 33.9876 7.44775C33.9876 6.80057 33.4629 6.27588 32.8157 6.27588Z" fill="#0B8041"/>
<path d="M32.8157 11.2969H30.0416C29.3944 11.2969 28.8698 11.8216 28.8698 12.4688C28.8698 13.1159 29.3944 13.6406 30.0416 13.6406H32.8157C33.4629 13.6406 33.9876 13.1159 33.9876 12.4688C33.9876 11.8216 33.4629 11.2969 32.8157 11.2969Z" fill="#0B8041"/>
<path d="M32.8157 16.3179H30.0416C29.3944 16.3179 28.8698 16.8426 28.8698 17.4897C28.8698 18.1369 29.3944 18.6616 30.0416 18.6616H32.8157C33.4629 18.6616 33.9876 18.1369 33.9876 17.4897C33.9876 16.8426 33.4629 16.3179 32.8157 16.3179Z" fill="#0B8041"/>
<path d="M32.8157 26.3594H30.0416C29.3944 26.3594 28.8698 26.8841 28.8698 27.5312C28.8698 28.1784 29.3944 28.7031 30.0416 28.7031H32.8157C33.4629 28.7031 33.9876 28.1784 33.9876 27.5312C33.9876 26.8841 33.4629 26.3594 32.8157 26.3594Z" fill="#0B8041"/>
<path d="M32.8157 21.3384H30.0416C29.3944 21.3384 28.8698 21.8631 28.8698 22.5103C28.8698 23.1574 29.3944 23.6821 30.0416 23.6821H32.8157C33.4629 23.6821 33.9876 23.1574 33.9876 22.5103C33.9876 21.8631 33.4629 21.3384 32.8157 21.3384Z" fill="#0B8041"/>
</g>
<defs>
<clipPath id="clip0_23910_389695">
<rect width="40" height="40" fill="white"/>
</clipPath>
</defs>
</svg>
