<svg width="74" height="24" viewBox="0 0 74 24" fill="none" xmlns="http://www.w3.org/2000/svg">
<path d="M37.6667 11.0787C38.3207 9.80348 39.213 8.82314 40.3435 8.13568C41.4718 7.44822 42.7318 7.10449 44.1235 7.10449C45.3124 7.10449 46.3551 7.34042 47.2537 7.81026C48.1501 8.28212 48.8417 8.89839 49.3244 9.66517V7.34043H54.4961V23.7662H49.3244V21.4414C48.8208 22.2062 48.1187 22.8245 47.2223 23.2964C46.3259 23.7682 45.2811 24.0021 44.0921 24.0021C42.7214 24.0021 41.4718 23.6543 40.3414 22.9567C39.213 22.2611 38.3207 21.2686 37.6646 19.9831C37.0085 18.6977 36.6825 17.2109 36.6825 15.5228C36.6825 13.8347 37.0106 12.354 37.6646 11.0787H37.6667ZM48.2504 12.5797C47.5337 11.8536 46.6623 11.4896 45.6342 11.4896C44.6062 11.4896 43.7348 11.8475 43.0181 12.5635C42.3014 13.2794 41.9441 14.2658 41.9441 15.5228C41.9441 16.7797 42.3014 17.7743 43.0181 18.5106C43.7327 19.2469 44.6062 19.615 45.6342 19.615C46.6623 19.615 47.5337 19.253 48.2504 18.5269C48.965 17.8008 49.3244 16.8103 49.3244 15.5533C49.3244 14.2964 48.9671 13.3058 48.2504 12.5797Z" fill="#E72027"/>
<path d="M60.7106 22.9705C59.39 22.2831 58.3515 21.3027 57.5951 20.0275C56.8386 18.7522 56.4604 17.2614 56.4604 15.5529C56.4604 13.8444 56.8428 12.378 57.6097 11.0926C58.3766 9.80714 59.4234 8.82069 60.7545 8.13324C62.0855 7.44578 63.5775 7.10205 65.2303 7.10205C66.8832 7.10205 68.3751 7.44578 69.7062 8.13324C71.0372 8.82069 72.0841 9.80714 72.851 11.0926C73.6179 12.378 74.0003 13.8648 74.0003 15.5529C74.0003 17.241 73.6116 18.7278 72.8364 20.0132C72.0591 21.2987 71.0017 22.2851 69.6602 22.9726C68.3187 23.66 66.8226 24.0037 65.1697 24.0037C63.5169 24.0037 62.0291 23.66 60.7085 22.9726L60.7106 22.9705ZM67.696 18.5854C68.3919 17.8797 68.7387 16.8688 68.7387 15.5529C68.7387 14.237 68.4002 13.2282 67.7253 12.5204C67.0503 11.8146 66.2187 11.4607 65.2303 11.4607C64.242 11.4607 63.3852 11.8085 62.7208 12.5061C62.0563 13.2037 61.722 14.2187 61.722 15.5529C61.722 16.8871 62.05 17.8776 62.704 18.5854C63.3581 19.2912 64.1814 19.6451 65.1676 19.6451C66.1539 19.6451 66.9981 19.2912 67.6919 18.5854H67.696Z" fill="#E72027"/>
<path d="M9.64754 15.5816L16.6643 7.34026H10.2828L5.17168 14.0216V3.32331C5.17168 0.437207 1.84718 0.044665 0.530751 0.00195312H0V23.766H5.17168V16.8772L10.312 23.766H16.7228L9.64545 15.5836L9.64754 15.5816Z" fill="#0B8041"/>
<path d="M34.7622 11.0786C34.106 9.80339 33.2138 8.82305 32.0854 8.13559C30.9571 7.44814 29.6971 7.10441 28.3054 7.10441C27.1352 7.10441 26.0967 7.34034 25.1899 7.81017C24.283 8.28203 23.5872 8.8983 23.1024 9.66508V3.44136C23.1024 0.941695 21.3074 0.19322 19.8322 0H17.9307V23.7641H23.1024V21.4678C23.606 22.2325 24.3018 22.8468 25.1899 23.3085C26.0758 23.7702 27.1144 24 28.3054 24C29.6971 24 30.9571 23.6522 32.0854 22.9546C33.2138 22.259 34.106 21.2664 34.7622 19.981C35.4162 18.6956 35.7443 17.2088 35.7443 15.5207C35.7443 13.8325 35.4162 12.3519 34.7622 11.0766V11.0786ZM29.3941 18.5105C28.669 19.2468 27.7914 19.6149 26.7633 19.6149C25.7352 19.6149 24.8639 19.2529 24.1472 18.5268C23.4304 17.8007 23.0731 16.8102 23.0731 15.5532C23.0731 14.2963 23.4304 13.3058 24.1472 12.5797C24.8618 11.8536 25.7352 11.4895 26.7633 11.4895C27.7914 11.4895 28.6941 11.8475 29.4087 12.5634C30.1233 13.2793 30.4827 14.2658 30.4827 15.5227C30.4827 16.7797 30.1192 17.7742 29.3941 18.5105Z" fill="#EA1E30"/>
</svg>
