<svg width="32" height="32" viewBox="0 0 32 32" fill="none" xmlns="http://www.w3.org/2000/svg">
<g clip-path="url(#clip0_23910_392720)">
<path d="M15.0625 3.75H16.9375V5.625H15.0625V3.75Z" fill="#0B8041"/>
<path d="M15.0625 7.5H16.9375V13.125H15.0625V7.5Z" fill="#0B8041"/>
<path d="M28.1875 11.25V9.375H24.3851C24.4193 9.06706 24.4375 8.75438 24.4375 8.4375C24.4375 3.78506 20.6524 0 16 0C11.3476 0 7.5625 3.78506 7.5625 8.4375C7.5625 8.75438 7.58069 9.06706 7.61487 9.375H3.8125V11.25H0V30.125H9.59838C12.2231 30.125 13.5987 31.9034 13.7367 32H18.2634C18.4041 31.9015 19.7661 30.125 22.4017 30.125H32V11.25H28.1875ZM26.3125 11.25V24.5H20.5266C19.2489 24.5 18.0216 24.8256 16.9375 25.4352V16.8226C20.1924 16.4611 22.8943 14.2408 23.9549 11.25H26.3125ZM16 1.875C19.6186 1.875 22.5625 4.81894 22.5625 8.4375C22.5625 12.0561 19.6186 15 16 15C12.3814 15 9.4375 12.0561 9.4375 8.4375C9.4375 4.81894 12.3814 1.875 16 1.875ZM5.6875 11.25H8.04513C9.10569 14.2408 11.8076 16.4611 15.0625 16.8226V25.4352C13.9784 24.8256 12.7511 24.5 11.4734 24.5H5.6875V11.25ZM30.125 28.25H22.4016C20.5748 28.25 18.8499 28.9129 17.5016 30.125H14.4983C13.15 28.9129 11.4251 28.25 9.59831 28.25H1.875V13.125H3.8125V26.375H11.4734C12.9329 26.375 14.3051 26.9434 15.3371 27.9754L16 28.6383L16.6629 27.9754C17.6949 26.9434 19.0671 26.375 20.5266 26.375H28.1875V13.125H30.125V28.25Z" fill="#0B8041"/>
</g>
<defs>
<clipPath id="clip0_23910_392720">
<rect width="32" height="32" fill="white"/>
</clipPath>
</defs>
</svg>
