<svg width="40" height="40" viewBox="0 0 40 40" fill="none" xmlns="http://www.w3.org/2000/svg">
<g clip-path="url(#clip0_23910_389711)">
<path d="M29.6237 22.4951C28.1223 23.9984 25.777 26.3461 23.8132 28.3236C21.4789 26.7956 19.3689 25.1095 17.6721 23.4128C15.5768 21.3174 12.9566 18.334 11.5406 16.2207C13.3383 14.4357 15.6894 12.0877 17.4146 10.3641L7.05051 0L1.87931 5.07812L1.87168 5.08575C0.424543 6.53289 -0.18825 8.50829 0.0503975 10.957C0.813641 18.7872 10.3888 30.1291 18.8532 35.8096C23.7537 39.0985 30.7974 42.1429 34.9637 37.9763C37.9886 34.9517 39.1449 33.7194 39.1928 33.6685L39.9686 32.8402L29.6237 22.4951ZM33.3054 36.318C30.1514 39.4717 23.8965 36.3696 20.1599 33.862C12.3053 28.5904 3.07347 17.7939 2.38468 10.7294C2.21745 9.01488 2.60166 7.67516 3.52635 6.74804L7.03556 3.302L14.0964 10.3631C10.5155 13.9386 9.43668 15.0043 8.57883 15.8536L9.03385 16.6379C10.4157 19.0182 13.6206 22.6782 16.0138 25.0714C18.6389 27.6965 21.3336 29.5498 24.1513 31.3134L24.8114 30.6472C26.2598 29.1858 28.3646 27.0755 29.6246 25.8133L36.6953 32.8839C36.0403 33.5598 34.9463 34.6768 33.3054 36.318Z" fill="#0B8041"/>
</g>
<defs>
<clipPath id="clip0_23910_389711">
<rect width="40" height="40" fill="white"/>
</clipPath>
</defs>
</svg>
