<svg width="40" height="40" viewBox="0 0 40 40" fill="none" xmlns="http://www.w3.org/2000/svg">
<g clip-path="url(#clip0_24400_3985)">
<path d="M26.3308 32.8745C26.396 32.8853 26.4609 32.8906 26.5249 32.8906C27.0874 32.8906 27.5838 32.4844 27.6794 31.9112L28.8513 24.8799C28.9577 24.2416 28.5264 23.6377 27.888 23.5313C27.2495 23.4246 26.6458 23.8562 26.5394 24.4946L25.3675 31.5259C25.2611 32.1643 25.6924 32.7681 26.3308 32.8745Z" fill="#0B8041"/>
<path d="M12.3988 31.9116C12.4943 32.4848 12.9907 32.891 13.5533 32.891C13.6173 32.891 13.6821 32.8858 13.7474 32.8749C14.3858 32.7685 14.817 32.1647 14.7106 31.5263L13.5388 24.495C13.4324 23.8566 12.8287 23.4254 12.1902 23.5317C11.5517 23.6381 11.1205 24.2419 11.2269 24.8803L12.3988 31.9116Z" fill="#0B8041"/>
<path d="M38.8281 14.1406H34.7038L25.6807 2.86171C25.2765 2.35647 24.5391 2.27436 24.0336 2.67874C23.5282 3.08303 23.4462 3.82046 23.8506 4.32585L31.7024 14.1406H8.29758L16.1495 4.32585C16.5537 3.82046 16.4718 3.08296 15.9665 2.67874C15.461 2.27436 14.7236 2.35639 14.3194 2.86171L5.29617 14.1406H1.17188C0.524687 14.1406 0 14.6653 0 15.3125V20C0 20.6472 0.524687 21.1719 1.17188 21.1719H2.63172L7.07641 36.7282C7.22008 37.2313 7.67992 37.5781 8.20312 37.5781H31.7969C32.3201 37.5781 32.7799 37.2313 32.9237 36.7282L37.3683 21.1719H38.8281C39.4753 21.1719 40 20.6472 40 20V15.3125C40 14.6653 39.4753 14.1406 38.8281 14.1406ZM30.913 35.2344H9.08703L5.06922 21.1719H34.9309L30.913 35.2344ZM37.6562 18.8281C33.6418 18.8281 6.14687 18.8281 2.34375 18.8281V16.4844H37.6562V18.8281Z" fill="#0B8041"/>
<path d="M20 32.8906C20.6472 32.8906 21.1719 32.3659 21.1719 31.7188V24.6875C21.1719 24.0403 20.6472 23.5156 20 23.5156C19.3528 23.5156 18.8281 24.0403 18.8281 24.6875V31.7188C18.8281 32.366 19.3528 32.8906 20 32.8906Z" fill="#0B8041"/>
</g>
<defs>
<clipPath id="clip0_24400_3985">
<rect width="40" height="40" fill="white"/>
</clipPath>
</defs>
</svg>
